<svg xmlns="http://www.w3.org/2000/svg" xmlns:xlink="http://www.w3.org/1999/xlink" viewBox="0 0 512 512" width="512" height="512" style="width: 100%; height: 100%; transform: translate3d(0,0,0); content-visibility: visible;" preserveAspectRatio="xMidYMid meet"><defs><clipPath id="__lottie_element_2"><rect width="512" height="512" x="0" y="0"></rect></clipPath><linearGradient id="__lottie_element_9" spreadMethod="pad" gradientUnits="userSpaceOnUse" x1="-118" y1="0" x2="36" y2="0"><stop offset="0%" stop-color="rgb(250,100,72)"></stop><stop offset="15%" stop-color="rgb(237,100,75)"></stop><stop offset="31%" stop-color="rgb(224,101,79)"></stop><stop offset="36%" stop-color="rgb(222,99,78)"></stop><stop offset="41%" stop-color="rgb(220,98,76)"></stop><stop offset="59%" stop-color="rgb(195,79,56)"></stop><stop offset="76%" stop-color="rgb(170,59,36)"></stop><stop offset="81%" stop-color="rgb(170,59,36)"></stop><stop offset="86%" stop-color="rgb(170,59,36)"></stop><stop offset="93%" stop-color="rgb(190,68,43)"></stop><stop offset="100%" stop-color="rgb(210,77,50)"></stop></linearGradient><linearGradient id="__lottie_element_10" spreadMethod="pad" gradientUnits="userSpaceOnUse" x1="-80" y1="0" x2="80" y2="0"><stop offset="0%" stop-color="rgb(207,207,207)"></stop><stop offset="10%" stop-color="rgb(193,193,193)"></stop><stop offset="20%" stop-color="rgb(178,178,178)"></stop><stop offset="25%" stop-color="rgb(178,178,178)"></stop><stop offset="30%" stop-color="rgb(178,178,178)"></stop><stop offset="44%" stop-color="rgb(198,198,198)"></stop><stop offset="57%" stop-color="rgb(219,219,219)"></stop><stop offset="78%" stop-color="rgb(236,236,236)"></stop><stop offset="100%" stop-color="rgb(252,252,252)"></stop></linearGradient><linearGradient id="__lottie_element_11" spreadMethod="pad" gradientUnits="userSpaceOnUse" x1="101" y1="2" x2="42" y2="0"><stop offset="0%" stop-color="rgb(255,255,255)"></stop><stop offset="50%" stop-color="rgb(255,255,255)"></stop><stop offset="100%" stop-color="rgb(255,255,255)"></stop></linearGradient><mask id="__lottie_element_13"><path fill="url(#__lottie_element_12)" d=" M0,192.76199340820312 C61.86199951171875,132.34500122070312 121.98500061035156,38.465999603271484 122.06199645996094,-46.62799835205078 C122.06199645996094,-46.62799835205078 122.16000366210938,-155.4810028076172 122.16000366210938,-155.4810028076172 C90.38400268554688,-178.2689971923828 36.805999755859375,-192.76199340820312 0,-192.76199340820312 C-36.805999755859375,-192.76199340820312 -90.38400268554688,-178.2689971923828 -122.16000366210938,-155.4810028076172 C-122.16000366210938,-155.4810028076172 -122.06199645996094,-46.62799835205078 -122.06199645996094,-46.62799835205078 C-121.98500061035156,38.465999603271484 -61.86199951171875,132.34500122070312 0,192.76199340820312z"></path></mask><linearGradient id="__lottie_element_12" spreadMethod="pad" gradientUnits="userSpaceOnUse" x1="101" y1="2" x2="42" y2="0"><stop stop-color="rgb(255,255,255)" offset="0%" stop-opacity="0"></stop><stop stop-color="rgb(255,255,255)" offset="11%" stop-opacity="0.125"></stop><stop stop-color="rgb(255,255,255)" offset="22%" stop-opacity="0.25"></stop><stop stop-color="rgb(255,255,255)" offset="35%" stop-opacity="0.25"></stop><stop stop-color="rgb(255,255,255)" offset="49%" stop-opacity="0.25"></stop><stop stop-color="rgb(255,255,255)" offset="74%" stop-opacity="0.125"></stop><stop stop-color="rgb(255,255,255)" offset="100%" stop-opacity="0"></stop></linearGradient><linearGradient id="__lottie_element_14" spreadMethod="pad" gradientUnits="userSpaceOnUse" x1="-104" y1="2" x2="-31" y2="0"><stop offset="0%" stop-color="rgb(255,255,255)"></stop><stop offset="50%" stop-color="rgb(255,255,255)"></stop><stop offset="100%" stop-color="rgb(255,255,255)"></stop></linearGradient><mask id="__lottie_element_16"><path fill="url(#__lottie_element_15)" d=" M0,192.76199340820312 C61.86199951171875,132.34500122070312 121.98500061035156,38.465999603271484 122.06199645996094,-46.62799835205078 C122.06199645996094,-46.62799835205078 122.16000366210938,-155.4810028076172 122.16000366210938,-155.4810028076172 C90.38400268554688,-178.2689971923828 36.805999755859375,-192.76199340820312 0,-192.76199340820312 C-36.805999755859375,-192.76199340820312 -90.38400268554688,-178.2689971923828 -122.16000366210938,-155.4810028076172 C-122.16000366210938,-155.4810028076172 -122.06199645996094,-46.62799835205078 -122.06199645996094,-46.62799835205078 C-121.98500061035156,38.465999603271484 -61.86199951171875,132.34500122070312 0,192.76199340820312z"></path></mask><linearGradient id="__lottie_element_15" spreadMethod="pad" gradientUnits="userSpaceOnUse" x1="-104" y1="2" x2="-31" y2="0"><stop stop-color="rgb(255,255,255)" offset="0%" stop-opacity="0"></stop><stop stop-color="rgb(255,255,255)" offset="11%" stop-opacity="0.125"></stop><stop stop-color="rgb(255,255,255)" offset="22%" stop-opacity="0.25"></stop><stop stop-color="rgb(255,255,255)" offset="35%" stop-opacity="0.25"></stop><stop stop-color="rgb(255,255,255)" offset="49%" stop-opacity="0.25"></stop><stop stop-color="rgb(255,255,255)" offset="74%" stop-opacity="0.125"></stop><stop stop-color="rgb(255,255,255)" offset="100%" stop-opacity="0"></stop></linearGradient><radialGradient id="__lottie_element_20" spreadMethod="pad" gradientUnits="userSpaceOnUse" cx="0" cy="46" r="108.83244001675236" fx="0" fy="46"><stop offset="0%" stop-color="rgb(255,255,255)"></stop><stop offset="50%" stop-color="rgb(255,255,255)"></stop><stop offset="100%" stop-color="rgb(255,255,255)"></stop></radialGradient><mask id="__lottie_element_22"><path fill="url(#__lottie_element_21)" d=" M-128.9709930419922,-47.99599838256836 C-128.9709930419922,-47.99599838256836 -129.072998046875,-160.39999389648438 -129.072998046875,-160.39999389648438 C-94.43900299072266,-185.23899841308594 -42.55699920654297,-201.04600524902344 0,-201.04600524902344 C42.55699920654297,-201.04600524902344 94.43900299072266,-185.23899841308594 129.072998046875,-160.39999389648438 C129.072998046875,-160.39999389648438 128.9709930419922,-47.99599838256836 128.9709930419922,-47.99599838256836 C128.88699340820312,44.64699935913086 63.8849983215332,138.64999389648438 0,201.04600524902344 C-63.8849983215332,138.64999389648438 -128.88699340820312,44.64699935913086 -128.9709930419922,-47.99599838256836z"></path></mask><radialGradient id="__lottie_element_21" spreadMethod="pad" gradientUnits="userSpaceOnUse" cx="0" cy="46" r="108.83244001675236" fx="0" fy="46"><stop stop-color="rgb(255,255,255)" offset="68%" stop-opacity="1"></stop><stop stop-color="rgb(255,255,255)" offset="84%" stop-opacity="0.5"></stop><stop stop-color="rgb(255,255,255)" offset="100%" stop-opacity="0"></stop></radialGradient><radialGradient id="__lottie_element_23" spreadMethod="pad" gradientUnits="userSpaceOnUse" cx="68" cy="-41.5" r="160.33480595304314" fx="68" fy="-41.5"><stop offset="0%" stop-color="rgb(255,255,255)" stop-opacity="0.8399999737739563"></stop><stop offset="50%" stop-color="rgb(255,255,255)" stop-opacity="0.41999998688697815"></stop><stop offset="100%" stop-color="rgb(255,255,255)" stop-opacity="0"></stop></radialGradient><radialGradient id="__lottie_element_24" spreadMethod="pad" gradientUnits="userSpaceOnUse" cx="-71.5" cy="-97.5" r="99.95248871338822" fx="-71.5" fy="-97.5"><stop offset="0%" stop-color="rgb(255,255,255)"></stop><stop offset="50%" stop-color="rgb(255,255,255)"></stop><stop offset="100%" stop-color="rgb(255,255,255)"></stop></radialGradient><mask id="__lottie_element_26"><path fill="url(#__lottie_element_25)" d=" M-128.9709930419922,-47.99599838256836 C-128.9709930419922,-47.99599838256836 -129.072998046875,-160.39999389648438 -129.072998046875,-160.39999389648438 C-94.43900299072266,-185.23899841308594 -42.55699920654297,-201.04600524902344 0,-201.04600524902344 C42.55699920654297,-201.04600524902344 94.43900299072266,-185.23899841308594 129.072998046875,-160.39999389648438 C129.072998046875,-160.39999389648438 128.9709930419922,-47.99599838256836 128.9709930419922,-47.99599838256836 C128.88699340820312,44.64699935913086 63.8849983215332,138.64999389648438 0,201.04600524902344 C-63.8849983215332,138.64999389648438 -128.88699340820312,44.64699935913086 -128.9709930419922,-47.99599838256836z"></path></mask><radialGradient id="__lottie_element_25" spreadMethod="pad" gradientUnits="userSpaceOnUse" cx="-71.5" cy="-97.5" r="99.95248871338822" fx="-71.5" fy="-97.5"><stop stop-color="rgb(255,255,255)" offset="26%" stop-opacity="1"></stop><stop stop-color="rgb(255,255,255)" offset="63%" stop-opacity="0.5"></stop><stop stop-color="rgb(255,255,255)" offset="100%" stop-opacity="0"></stop></radialGradient><linearGradient id="__lottie_element_30" spreadMethod="pad" gradientUnits="userSpaceOnUse" x1="114.5" y1="4.099999904632568" x2="49.29999923706055" y2="0"><stop offset="0%" stop-color="rgb(188,189,189)"></stop><stop offset="50%" stop-color="rgb(188,189,189)"></stop><stop offset="100%" stop-color="rgb(188,189,189)"></stop></linearGradient><mask id="__lottie_element_32"><path fill="url(#__lottie_element_31)" d=" M0,220 C-74.2249984741211,154.33799743652344 -145.0030059814453,46.369998931884766 -145.09100341796875,-50.816001892089844 C-145.09100341796875,-50.816001892089844 -145.1999969482422,-170.8000030517578 -145.1999969482422,-170.8000030517578 C-117.07599639892578,-195.43099975585938 -55.29899978637695,-220 0,-220 C55.29899978637695,-220 117.07599639892578,-195.43099975585938 145.1999969482422,-170.8000030517578 C145.1999969482422,-170.8000030517578 145.09100341796875,-50.816001892089844 145.09100341796875,-50.816001892089844 C145.0030059814453,46.369998931884766 74.2249984741211,154.33799743652344 0,220z"></path></mask><linearGradient id="__lottie_element_31" spreadMethod="pad" gradientUnits="userSpaceOnUse" x1="114.5" y1="4.099999904632568" x2="49.29999923706055" y2="0"><stop stop-color="rgb(255,255,255)" offset="0%" stop-opacity="0"></stop><stop stop-color="rgb(255,255,255)" offset="20%" stop-opacity="0.5"></stop><stop stop-color="rgb(255,255,255)" offset="41%" stop-opacity="1"></stop><stop stop-color="rgb(255,255,255)" offset="52%" stop-opacity="1"></stop><stop stop-color="rgb(255,255,255)" offset="64%" stop-opacity="1"></stop><stop stop-color="rgb(255,255,255)" offset="82%" stop-opacity="0.5"></stop><stop stop-color="rgb(255,255,255)" offset="100%" stop-opacity="0"></stop></linearGradient><linearGradient id="__lottie_element_33" spreadMethod="pad" gradientUnits="userSpaceOnUse" x1="-98.4000015258789" y1="3.200000047683716" x2="-37.29999923706055" y2="0"><stop offset="0%" stop-color="rgb(188,189,189)"></stop><stop offset="50%" stop-color="rgb(188,189,189)"></stop><stop offset="100%" stop-color="rgb(188,189,189)"></stop></linearGradient><mask id="__lottie_element_35"><path fill="url(#__lottie_element_34)" d=" M0,220 C-74.2249984741211,154.33799743652344 -145.0030059814453,46.369998931884766 -145.09100341796875,-50.816001892089844 C-145.09100341796875,-50.816001892089844 -145.1999969482422,-170.8000030517578 -145.1999969482422,-170.8000030517578 C-117.07599639892578,-195.43099975585938 -55.29899978637695,-220 0,-220 C55.29899978637695,-220 117.07599639892578,-195.43099975585938 145.1999969482422,-170.8000030517578 C145.1999969482422,-170.8000030517578 145.09100341796875,-50.816001892089844 145.09100341796875,-50.816001892089844 C145.0030059814453,46.369998931884766 74.2249984741211,154.33799743652344 0,220z"></path></mask><linearGradient id="__lottie_element_34" spreadMethod="pad" gradientUnits="userSpaceOnUse" x1="-98.4000015258789" y1="3.200000047683716" x2="-37.29999923706055" y2="0"><stop stop-color="rgb(255,255,255)" offset="0%" stop-opacity="0"></stop><stop stop-color="rgb(255,255,255)" offset="19%" stop-opacity="0.5"></stop><stop stop-color="rgb(255,255,255)" offset="39%" stop-opacity="1"></stop><stop stop-color="rgb(255,255,255)" offset="50%" stop-opacity="1"></stop><stop stop-color="rgb(255,255,255)" offset="62%" stop-opacity="1"></stop><stop stop-color="rgb(255,255,255)" offset="81%" stop-opacity="0.5"></stop><stop stop-color="rgb(255,255,255)" offset="100%" stop-opacity="0"></stop></linearGradient></defs><g clip-path="url(#__lottie_element_2)"><g style="display: block;" transform="matrix(1,0,0,1,255.79800415039062,262.0150146484375)" opacity="1"><g opacity="1" transform="matrix(1,0,0,1,0,0)"><path fill="rgb(110,110,110)" fill-opacity="1" d=" M0,220 C-74.2249984741211,154.33799743652344 -145.0030059814453,46.369998931884766 -145.09100341796875,-50.816001892089844 C-145.09100341796875,-50.816001892089844 -145.1999969482422,-170.8000030517578 -145.1999969482422,-170.8000030517578 C-117.07599639892578,-195.43099975585938 -55.29899978637695,-220 0,-220 C55.29899978637695,-220 117.07599639892578,-195.43099975585938 145.1999969482422,-170.8000030517578 C145.1999969482422,-170.8000030517578 145.09100341796875,-50.816001892089844 145.09100341796875,-50.816001892089844 C145.0030059814453,46.369998931884766 74.2249984741211,154.33799743652344 0,220z"></path></g><g opacity="1" transform="matrix(1,0,0,1,0,0)"><path fill="url(#__lottie_element_30)" mask="url(#__lottie_element_32)" fill-opacity="1" d="M0 0 M0,220 C-74.2249984741211,154.33799743652344 -145.0030059814453,46.369998931884766 -145.09100341796875,-50.816001892089844 C-145.09100341796875,-50.816001892089844 -145.1999969482422,-170.8000030517578 -145.1999969482422,-170.8000030517578 C-117.07599639892578,-195.43099975585938 -55.29899978637695,-220 0,-220 C55.29899978637695,-220 117.07599639892578,-195.43099975585938 145.1999969482422,-170.8000030517578 C145.1999969482422,-170.8000030517578 145.09100341796875,-50.816001892089844 145.09100341796875,-50.816001892089844 C145.0030059814453,46.369998931884766 74.2249984741211,154.33799743652344 0,220z"></path><path fill="url(#__lottie_element_33)" mask="url(#__lottie_element_35)" fill-opacity="1" d="M0 0 M0,220 C-74.2249984741211,154.33799743652344 -145.0030059814453,46.369998931884766 -145.09100341796875,-50.816001892089844 C-145.09100341796875,-50.816001892089844 -145.1999969482422,-170.8000030517578 -145.1999969482422,-170.8000030517578 C-117.07599639892578,-195.43099975585938 -55.29899978637695,-220 0,-220 C55.29899978637695,-220 117.07599639892578,-195.43099975585938 145.1999969482422,-170.8000030517578 C145.1999969482422,-170.8000030517578 145.09100341796875,-50.816001892089844 145.09100341796875,-50.816001892089844 C145.0030059814453,46.369998931884766 74.2249984741211,154.33799743652344 0,220z"></path></g><g opacity="1" transform="matrix(1,0,0,1,0,0)"><path stroke-linecap="round" stroke-linejoin="round" fill-opacity="0" stroke="rgb(69,69,70)" stroke-opacity="1" stroke-width="8" d=" M0,220 C-74.2249984741211,154.33799743652344 -145.0030059814453,46.369998931884766 -145.09100341796875,-50.816001892089844 C-145.09100341796875,-50.816001892089844 -145.1999969482422,-170.8000030517578 -145.1999969482422,-170.8000030517578 C-117.07599639892578,-195.43099975585938 -55.29899978637695,-220 0,-220 C55.29899978637695,-220 117.07599639892578,-195.43099975585938 145.1999969482422,-170.8000030517578 C145.1999969482422,-170.8000030517578 145.09100341796875,-50.816001892089844 145.09100341796875,-50.816001892089844 C145.0030059814453,46.369998931884766 74.2249984741211,154.33799743652344 0,220z"></path></g></g><g style="display: block;" transform="matrix(1,0,0,1,255.79800415039062,259.1809997558594)" opacity="1"><g opacity="1" transform="matrix(1,0,0,1,0,0)"><path fill="rgb(255,255,255)" fill-opacity="0.15" d=" M-128.9709930419922,-47.99599838256836 C-128.9709930419922,-47.99599838256836 -129.072998046875,-160.39999389648438 -129.072998046875,-160.39999389648438 C-94.43900299072266,-185.23899841308594 -42.55699920654297,-201.04600524902344 0,-201.04600524902344 C42.55699920654297,-201.04600524902344 94.43900299072266,-185.23899841308594 129.072998046875,-160.39999389648438 C129.072998046875,-160.39999389648438 128.9709930419922,-47.99599838256836 128.9709930419922,-47.99599838256836 C128.88699340820312,44.64699935913086 63.8849983215332,138.64999389648438 0,201.04600524902344 C-63.8849983215332,138.64999389648438 -128.88699340820312,44.64699935913086 -128.9709930419922,-47.99599838256836z"></path><path fill="url(#__lottie_element_20)" mask="url(#__lottie_element_22)" fill-opacity="1" d="M0 0 M-128.9709930419922,-47.99599838256836 C-128.9709930419922,-47.99599838256836 -129.072998046875,-160.39999389648438 -129.072998046875,-160.39999389648438 C-94.43900299072266,-185.23899841308594 -42.55699920654297,-201.04600524902344 0,-201.04600524902344 C42.55699920654297,-201.04600524902344 94.43900299072266,-185.23899841308594 129.072998046875,-160.39999389648438 C129.072998046875,-160.39999389648438 128.9709930419922,-47.99599838256836 128.9709930419922,-47.99599838256836 C128.88699340820312,44.64699935913086 63.8849983215332,138.64999389648438 0,201.04600524902344 C-63.8849983215332,138.64999389648438 -128.88699340820312,44.64699935913086 -128.9709930419922,-47.99599838256836z"></path><path fill="url(#__lottie_element_23)" fill-opacity="1" d=" M-128.9709930419922,-47.99599838256836 C-128.9709930419922,-47.99599838256836 -129.072998046875,-160.39999389648438 -129.072998046875,-160.39999389648438 C-94.43900299072266,-185.23899841308594 -42.55699920654297,-201.04600524902344 0,-201.04600524902344 C42.55699920654297,-201.04600524902344 94.43900299072266,-185.23899841308594 129.072998046875,-160.39999389648438 C129.072998046875,-160.39999389648438 128.9709930419922,-47.99599838256836 128.9709930419922,-47.99599838256836 C128.88699340820312,44.64699935913086 63.8849983215332,138.64999389648438 0,201.04600524902344 C-63.8849983215332,138.64999389648438 -128.88699340820312,44.64699935913086 -128.9709930419922,-47.99599838256836z"></path><path fill="url(#__lottie_element_24)" mask="url(#__lottie_element_26)" fill-opacity="1" d="M0 0 M-128.9709930419922,-47.99599838256836 C-128.9709930419922,-47.99599838256836 -129.072998046875,-160.39999389648438 -129.072998046875,-160.39999389648438 C-94.43900299072266,-185.23899841308594 -42.55699920654297,-201.04600524902344 0,-201.04600524902344 C42.55699920654297,-201.04600524902344 94.43900299072266,-185.23899841308594 129.072998046875,-160.39999389648438 C129.072998046875,-160.39999389648438 128.9709930419922,-47.99599838256836 128.9709930419922,-47.99599838256836 C128.88699340820312,44.64699935913086 63.8849983215332,138.64999389648438 0,201.04600524902344 C-63.8849983215332,138.64999389648438 -128.88699340820312,44.64699935913086 -128.9709930419922,-47.99599838256836z"></path></g></g><g style="display: block;" transform="matrix(1,0,0,1,255.79800415039062,257.8059997558594)" opacity="1"><g opacity="1" transform="matrix(1,0,0,1,0,0)"><path fill="url(#__lottie_element_9)" fill-opacity="1" d=" M0,192.76199340820312 C61.86199951171875,132.34500122070312 121.98500061035156,38.465999603271484 122.06199645996094,-46.62799835205078 C122.06199645996094,-46.62799835205078 122.16000366210938,-155.4810028076172 122.16000366210938,-155.4810028076172 C90.38400268554688,-178.2689971923828 36.805999755859375,-192.76199340820312 0,-192.76199340820312 C-36.805999755859375,-192.76199340820312 -90.38400268554688,-178.2689971923828 -122.16000366210938,-155.4810028076172 C-122.16000366210938,-155.4810028076172 -122.06199645996094,-46.62799835205078 -122.06199645996094,-46.62799835205078 C-121.98500061035156,38.465999603271484 -61.86199951171875,132.34500122070312 0,192.76199340820312z"></path></g><g opacity="1" transform="matrix(1,0,0,1,43,-6.5)"><path fill="url(#__lottie_element_10)" fill-opacity="1" d=" M-79.49700164794922,-62.47100067138672 C-79.49700164794922,-62.47100067138672 -5.829999923706055,-15.63599967956543 -5.829999923706055,-15.63599967956543 C-5.829999923706055,-15.63599967956543 -79.49600219726562,36.29999923706055 -79.49600219726562,36.29999923706055 C-79.49600219726562,36.29999923706055 -5.829999923706055,94.20899963378906 -5.829999923706055,94.20899963378906 C-5.829999923706055,94.20899963378906 -76.93000030517578,143.66299438476562 -76.93000030517578,143.66299438476562 C-76.93000030517578,143.66299438476562 -29.128000259399414,185.5679931640625 -29.128000259399414,185.5679931640625 C27.679000854492188,125.24299621582031 79.3270034790039,38.832000732421875 79.39800262451172,-40.03300094604492 C79.39800262451172,-40.03300094604492 79.49700164794922,-148.88499450683594 79.49700164794922,-148.88499450683594 C51.483001708984375,-168.97500610351562 6.521999835968018,-182.61900329589844 -28.951000213623047,-185.5679931640625 C-28.951000213623047,-185.5679931640625 -79.49700164794922,-151.59500122070312 -79.49700164794922,-151.59500122070312 C-79.49700164794922,-151.59500122070312 -5.829999923706055,-108.98300170898438 -5.829999923706055,-108.98300170898438 C-5.829999923706055,-108.98300170898438 -79.49700164794922,-62.47100067138672 -79.49700164794922,-62.47100067138672z"></path></g><g opacity="1" transform="matrix(1,0,0,1,0,0)"><path fill="url(#__lottie_element_11)" mask="url(#__lottie_element_13)" fill-opacity="1" d="M0 0 M0,192.76199340820312 C61.86199951171875,132.34500122070312 121.98500061035156,38.465999603271484 122.06199645996094,-46.62799835205078 C122.06199645996094,-46.62799835205078 122.16000366210938,-155.4810028076172 122.16000366210938,-155.4810028076172 C90.38400268554688,-178.2689971923828 36.805999755859375,-192.76199340820312 0,-192.76199340820312 C-36.805999755859375,-192.76199340820312 -90.38400268554688,-178.2689971923828 -122.16000366210938,-155.4810028076172 C-122.16000366210938,-155.4810028076172 -122.06199645996094,-46.62799835205078 -122.06199645996094,-46.62799835205078 C-121.98500061035156,38.465999603271484 -61.86199951171875,132.34500122070312 0,192.76199340820312z"></path><path fill="url(#__lottie_element_14)" mask="url(#__lottie_element_16)" fill-opacity="1" d="M0 0 M0,192.76199340820312 C61.86199951171875,132.34500122070312 121.98500061035156,38.465999603271484 122.06199645996094,-46.62799835205078 C122.06199645996094,-46.62799835205078 122.16000366210938,-155.4810028076172 122.16000366210938,-155.4810028076172 C90.38400268554688,-178.2689971923828 36.805999755859375,-192.76199340820312 0,-192.76199340820312 C-36.805999755859375,-192.76199340820312 -90.38400268554688,-178.2689971923828 -122.16000366210938,-155.4810028076172 C-122.16000366210938,-155.4810028076172 -122.06199645996094,-46.62799835205078 -122.06199645996094,-46.62799835205078 C-121.98500061035156,38.465999603271484 -61.86199951171875,132.34500122070312 0,192.76199340820312z"></path></g><g opacity="1" transform="matrix(1,0,0,1,0,0)"><path stroke-linecap="round" stroke-linejoin="miter" fill-opacity="0" stroke-miterlimit="10" stroke="rgb(107,107,107)" stroke-opacity="1" stroke-width="5" d=" M0,192.76199340820312 C61.86199951171875,132.34500122070312 121.98500061035156,38.465999603271484 122.06199645996094,-46.62799835205078 C122.06199645996094,-46.62799835205078 122.16000366210938,-155.4810028076172 122.16000366210938,-155.4810028076172 C90.38400268554688,-178.2689971923828 36.805999755859375,-192.76199340820312 0,-192.76199340820312 C-36.805999755859375,-192.76199340820312 -90.38400268554688,-178.2689971923828 -122.16000366210938,-155.4810028076172 C-122.16000366210938,-155.4810028076172 -122.06199645996094,-46.62799835205078 -122.06199645996094,-46.62799835205078 C-121.98500061035156,38.465999603271484 -61.86199951171875,132.34500122070312 0,192.76199340820312z"></path></g><g opacity="1" transform="matrix(1,0,0,1,0,0)"><path stroke-linecap="round" stroke-linejoin="miter" fill-opacity="0" stroke-miterlimit="10" stroke="rgb(66,66,66)" stroke-opacity="1" stroke-width="5" d=" M0,192.76199340820312 C35.242000579833984,158.34300231933594 69.9209976196289,113.06300354003906 93.25299835205078,64.73500061035156"></path></g><g opacity="1" transform="matrix(1,0,0,1,0,0)"><path stroke-linecap="round" stroke-linejoin="miter" fill-opacity="0" stroke-miterlimit="10" stroke="rgb(134,33,14)" stroke-opacity="1" stroke-width="5" d=" M-93.38700103759766,64.45800018310547 C-70.0530014038086,112.88999938964844 -35.310001373291016,158.27699279785156 0,192.76199340820312 C0,192.76199340820312 0,192.76199340820312 0,192.76199340820312 C4.026000022888184,188.8300018310547 8.043999671936035,184.7570037841797 12.038999557495117,180.5540008544922"></path></g><g opacity="1" transform="matrix(1,0,0,1,0,0)"><path stroke-linecap="round" stroke-linejoin="miter" fill-opacity="0" stroke-miterlimit="10" stroke="rgb(66,66,66)" stroke-opacity="1" stroke-width="5" d=" M122.16000366210938,-155.4810028076172 C93.22899627685547,-176.22900390625 46.2239990234375,-190.1009979248047 10.260000228881836,-192.41799926757812"></path></g><g opacity="1" transform="matrix(1,0,0,1,0,0)"><path stroke-linecap="round" stroke-linejoin="miter" fill-opacity="0" stroke-miterlimit="10" stroke="rgb(134,33,14)" stroke-opacity="1" stroke-width="5" d=" M10.260000228881836,-192.41799926757812 C6.723999977111816,-192.64599609375 3.2950000762939453,-192.76199340820312 0,-192.76199340820312 C-36.47700119018555,-192.76199340820312 -89.4260025024414,-178.52699279785156 -121.302001953125,-156.09100341796875"></path></g></g><g style="display: block;" transform="matrix(1,0,0,1,-392,0)" opacity="1"><g opacity="1" transform="matrix(1,0,0,1,647.8880004882812,466.8489990234375)"><path fill="rgb(78,78,78)" fill-opacity="1" d=" M0,4.800000190734863 C2.6429998874664307,4.800000190734863 4.800000190734863,2.6440000534057617 4.800000190734863,0 C4.800000190734863,-2.6440000534057617 2.6429998874664307,-4.800000190734863 0,-4.800000190734863 C-2.6440000534057617,-4.800000190734863 -4.800000190734863,-2.6440000534057617 -4.800000190734863,0 C-4.800000190734863,2.6440000534057617 -2.6440000534057617,4.800000190734863 0,4.800000190734863z"></path></g><g opacity="1" transform="matrix(1,0,0,1,674.2919921875,441.6990051269531)"><path fill="rgb(78,78,78)" fill-opacity="1" d=" M0,4.800000190734863 C2.6440000534057617,4.800000190734863 4.800000190734863,2.6440000534057617 4.800000190734863,0 C4.800000190734863,-2.6440000534057617 2.6440000534057617,-4.800000190734863 0,-4.800000190734863 C-2.6440000534057617,-4.800000190734863 -4.800000190734863,-2.6440000534057617 -4.800000190734863,0 C-4.800000190734863,2.6440000534057617 -2.6440000534057617,4.800000190734863 0,4.800000190734863z"></path></g><g opacity="1" transform="matrix(1,0,0,1,699.9409790039062,408.4490051269531)"><path fill="rgb(78,78,78)" fill-opacity="1" d=" M0,4.800000190734863 C2.6440000534057617,4.800000190734863 4.800000190734863,2.6440000534057617 4.800000190734863,0 C4.800000190734863,-2.6429998874664307 2.6440000534057617,-4.800000190734863 0,-4.800000190734863 C-2.6440000534057617,-4.800000190734863 -4.800000190734863,-2.6429998874664307 -4.800000190734863,0 C-4.800000190734863,2.6440000534057617 -2.6440000534057617,4.800000190734863 0,4.800000190734863z"></path></g><g opacity="1" transform="matrix(1,0,0,1,724.3410034179688,375.14898681640625)"><path fill="rgb(78,78,78)" fill-opacity="1" d=" M0,4.800000190734863 C2.6440000534057617,4.800000190734863 4.800000190734863,2.6440000534057617 4.800000190734863,0 C4.800000190734863,-2.6429998874664307 2.6440000534057617,-4.800000190734863 0,-4.800000190734863 C-2.6440000534057617,-4.800000190734863 -4.800000190734863,-2.6429998874664307 -4.800000190734863,0 C-4.800000190734863,2.6440000534057617 -2.6440000534057617,4.800000190734863 0,4.800000190734863z"></path></g><g opacity="1" transform="matrix(1,0,0,1,748.5419921875,335.24700927734375)"><path fill="rgb(78,78,78)" fill-opacity="1" d=" M0,4.800000190734863 C2.6440000534057617,4.800000190734863 4.800000190734863,2.6440000534057617 4.800000190734863,0 C4.800000190734863,-2.6440000534057617 2.6440000534057617,-4.800000190734863 0,-4.800000190734863 C-2.6440000534057617,-4.800000190734863 -4.800000190734863,-2.6440000534057617 -4.800000190734863,0 C-4.800000190734863,2.6440000534057617 -2.6440000534057617,4.800000190734863 0,4.800000190734863z"></path></g><g opacity="1" transform="matrix(1,0,0,1,768.1920166015625,290.99700927734375)"><path fill="rgb(78,78,78)" fill-opacity="1" d=" M0,4.800000190734863 C2.6440000534057617,4.800000190734863 4.800000190734863,2.6440000534057617 4.800000190734863,0 C4.800000190734863,-2.6440000534057617 2.6440000534057617,-4.800000190734863 0,-4.800000190734863 C-2.6440000534057617,-4.800000190734863 -4.800000190734863,-2.6440000534057617 -4.800000190734863,0 C-4.800000190734863,2.6440000534057617 -2.6440000534057617,4.800000190734863 0,4.800000190734863z"></path></g><g opacity="1" transform="matrix(1,0,0,1,780.7919921875,237.1479949951172)"><path fill="rgb(78,78,78)" fill-opacity="1" d=" M0,4.800000190734863 C2.6440000534057617,4.800000190734863 4.800000190734863,2.6440000534057617 4.800000190734863,0 C4.800000190734863,-2.6440000534057617 2.6440000534057617,-4.800000190734863 0,-4.800000190734863 C-2.6440000534057617,-4.800000190734863 -4.800000190734863,-2.6440000534057617 -4.800000190734863,0 C-4.800000190734863,2.6440000534057617 -2.6440000534057617,4.800000190734863 0,4.800000190734863z"></path></g><g opacity="1" transform="matrix(1,0,0,1,782.4420166015625,191.3979949951172)"><path fill="rgb(78,78,78)" fill-opacity="1" d=" M0,4.800000190734863 C2.6440000534057617,4.800000190734863 4.800000190734863,2.6440000534057617 4.800000190734863,0 C4.800000190734863,-2.6440000534057617 2.6440000534057617,-4.800000190734863 0,-4.800000190734863 C-2.6440000534057617,-4.800000190734863 -4.800000190734863,-2.6440000534057617 -4.800000190734863,0 C-4.800000190734863,2.6440000534057617 -2.6440000534057617,4.800000190734863 0,4.800000190734863z"></path></g><g opacity="1" transform="matrix(1,0,0,1,782.4420166015625,141.447998046875)"><path fill="rgb(78,78,78)" fill-opacity="1" d=" M0,4.800000190734863 C2.6440000534057617,4.800000190734863 4.800000190734863,2.6440000534057617 4.800000190734863,0 C4.800000190734863,-2.6440000534057617 2.6440000534057617,-4.800000190734863 0,-4.800000190734863 C-2.6440000534057617,-4.800000190734863 -4.800000190734863,-2.6440000534057617 -4.800000190734863,0 C-4.800000190734863,2.6440000534057617 -2.6440000534057617,4.800000190734863 0,4.800000190734863z"></path></g><g opacity="1" transform="matrix(1,0,0,1,781.4420166015625,95.39800262451172)"><path fill="rgb(78,78,78)" fill-opacity="1" d=" M0,4.800000190734863 C2.6440000534057617,4.800000190734863 4.800000190734863,2.6429998874664307 4.800000190734863,0 C4.800000190734863,-2.6440000534057617 2.6440000534057617,-4.800000190734863 0,-4.800000190734863 C-2.6440000534057617,-4.800000190734863 -4.800000190734863,-2.6440000534057617 -4.800000190734863,0 C-4.800000190734863,2.6429998874664307 -2.6440000534057617,4.800000190734863 0,4.800000190734863z"></path></g><g opacity="1" transform="matrix(1,0,0,1,742.3920288085938,72.89800262451172)"><path fill="rgb(78,78,78)" fill-opacity="1" d=" M0,4.800000190734863 C2.6440000534057617,4.800000190734863 4.800000190734863,2.6429998874664307 4.800000190734863,0 C4.800000190734863,-2.6440000534057617 2.6440000534057617,-4.800000190734863 0,-4.800000190734863 C-2.6440000534057617,-4.800000190734863 -4.800000190734863,-2.6440000534057617 -4.800000190734863,0 C-4.800000190734863,2.6429998874664307 -2.6440000534057617,4.800000190734863 0,4.800000190734863z"></path></g><g opacity="1" transform="matrix(1,0,0,1,697.2420043945312,58.347999572753906)"><path fill="rgb(78,78,78)" fill-opacity="1" d=" M0,4.800000190734863 C2.6440000534057617,4.800000190734863 4.800000190734863,2.6440000534057617 4.800000190734863,0 C4.800000190734863,-2.6440000534057617 2.6440000534057617,-4.800000190734863 0,-4.800000190734863 C-2.6440000534057617,-4.800000190734863 -4.800000190734863,-2.6440000534057617 -4.800000190734863,0 C-4.800000190734863,2.6440000534057617 -2.6440000534057617,4.800000190734863 0,4.800000190734863z"></path></g><g opacity="1" transform="matrix(1,0,0,1,647.8880004882812,52.79800033569336)"><path fill="rgb(78,78,78)" fill-opacity="1" d=" M0,4.800000190734863 C2.6429998874664307,4.800000190734863 4.800000190734863,2.6440000534057617 4.800000190734863,0 C4.800000190734863,-2.6440000534057617 2.6429998874664307,-4.800000190734863 0,-4.800000190734863 C-2.6440000534057617,-4.800000190734863 -4.800000190734863,-2.6440000534057617 -4.800000190734863,0 C-4.800000190734863,2.6440000534057617 -2.6440000534057617,4.800000190734863 0,4.800000190734863z"></path></g><g opacity="1" transform="matrix(1,0,0,1,620.9849853515625,441.6990051269531)"><path fill="rgb(78,78,78)" fill-opacity="1" d=" M0,4.800000190734863 C2.6440000534057617,4.800000190734863 4.800000190734863,2.6440000534057617 4.800000190734863,0 C4.800000190734863,-2.6440000534057617 2.6440000534057617,-4.800000190734863 0,-4.800000190734863 C-2.6440000534057617,-4.800000190734863 -4.800000190734863,-2.6440000534057617 -4.800000190734863,0 C-4.800000190734863,2.6440000534057617 -2.6440000534057617,4.800000190734863 0,4.800000190734863z"></path></g><g opacity="1" transform="matrix(1,0,0,1,595.8350219726562,408.4490051269531)"><path fill="rgb(78,78,78)" fill-opacity="1" d=" M0,4.800000190734863 C2.6440000534057617,4.800000190734863 4.800000190734863,2.6440000534057617 4.800000190734863,0 C4.800000190734863,-2.6429998874664307 2.6440000534057617,-4.800000190734863 0,-4.800000190734863 C-2.6440000534057617,-4.800000190734863 -4.800000190734863,-2.6429998874664307 -4.800000190734863,0 C-4.800000190734863,2.6440000534057617 -2.6440000534057617,4.800000190734863 0,4.800000190734863z"></path></g><g opacity="1" transform="matrix(1,0,0,1,571.4349975585938,375.14898681640625)"><path fill="rgb(78,78,78)" fill-opacity="1" d=" M0,4.800000190734863 C2.6440000534057617,4.800000190734863 4.800000190734863,2.6440000534057617 4.800000190734863,0 C4.800000190734863,-2.6429998874664307 2.6440000534057617,-4.800000190734863 0,-4.800000190734863 C-2.6440000534057617,-4.800000190734863 -4.800000190734863,-2.6429998874664307 -4.800000190734863,0 C-4.800000190734863,2.6440000534057617 -2.6440000534057617,4.800000190734863 0,4.800000190734863z"></path></g><g opacity="1" transform="matrix(1,0,0,1,547.2340087890625,335.24700927734375)"><path fill="rgb(78,78,78)" fill-opacity="1" d=" M0,4.800000190734863 C2.6440000534057617,4.800000190734863 4.800000190734863,2.6440000534057617 4.800000190734863,0 C4.800000190734863,-2.6440000534057617 2.6440000534057617,-4.800000190734863 0,-4.800000190734863 C-2.6440000534057617,-4.800000190734863 -4.800000190734863,-2.6440000534057617 -4.800000190734863,0 C-4.800000190734863,2.6440000534057617 -2.6440000534057617,4.800000190734863 0,4.800000190734863z"></path></g><g opacity="1" transform="matrix(1,0,0,1,527.583984375,290.99700927734375)"><path fill="rgb(78,78,78)" fill-opacity="1" d=" M0,4.800000190734863 C2.6440000534057617,4.800000190734863 4.800000190734863,2.6440000534057617 4.800000190734863,0 C4.800000190734863,-2.6440000534057617 2.6440000534057617,-4.800000190734863 0,-4.800000190734863 C-2.6440000534057617,-4.800000190734863 -4.800000190734863,-2.6440000534057617 -4.800000190734863,0 C-4.800000190734863,2.6440000534057617 -2.6440000534057617,4.800000190734863 0,4.800000190734863z"></path></g><g opacity="1" transform="matrix(1,0,0,1,514.9849853515625,237.1479949951172)"><path fill="rgb(78,78,78)" fill-opacity="1" d=" M0,4.800000190734863 C2.6440000534057617,4.800000190734863 4.800000190734863,2.6440000534057617 4.800000190734863,0 C4.800000190734863,-2.6440000534057617 2.6440000534057617,-4.800000190734863 0,-4.800000190734863 C-2.6440000534057617,-4.800000190734863 -4.800000190734863,-2.6440000534057617 -4.800000190734863,0 C-4.800000190734863,2.6440000534057617 -2.6440000534057617,4.800000190734863 0,4.800000190734863z"></path></g><g opacity="1" transform="matrix(1,0,0,1,513.3350219726562,191.3979949951172)"><path fill="rgb(78,78,78)" fill-opacity="1" d=" M0,4.800000190734863 C2.6440000534057617,4.800000190734863 4.800000190734863,2.6440000534057617 4.800000190734863,0 C4.800000190734863,-2.6440000534057617 2.6440000534057617,-4.800000190734863 0,-4.800000190734863 C-2.6440000534057617,-4.800000190734863 -4.800000190734863,-2.6440000534057617 -4.800000190734863,0 C-4.800000190734863,2.6440000534057617 -2.6440000534057617,4.800000190734863 0,4.800000190734863z"></path></g><g opacity="1" transform="matrix(1,0,0,1,513.3350219726562,141.447998046875)"><path fill="rgb(78,78,78)" fill-opacity="1" d=" M0,4.800000190734863 C2.6440000534057617,4.800000190734863 4.800000190734863,2.6440000534057617 4.800000190734863,0 C4.800000190734863,-2.6440000534057617 2.6440000534057617,-4.800000190734863 0,-4.800000190734863 C-2.6440000534057617,-4.800000190734863 -4.800000190734863,-2.6440000534057617 -4.800000190734863,0 C-4.800000190734863,2.6440000534057617 -2.6440000534057617,4.800000190734863 0,4.800000190734863z"></path></g><g opacity="1" transform="matrix(1,0,0,1,514.3350219726562,95.39800262451172)"><path fill="rgb(78,78,78)" fill-opacity="1" d=" M0,4.800000190734863 C2.6440000534057617,4.800000190734863 4.800000190734863,2.6429998874664307 4.800000190734863,0 C4.800000190734863,-2.6440000534057617 2.6440000534057617,-4.800000190734863 0,-4.800000190734863 C-2.6440000534057617,-4.800000190734863 -4.800000190734863,-2.6440000534057617 -4.800000190734863,0 C-4.800000190734863,2.6429998874664307 -2.6440000534057617,4.800000190734863 0,4.800000190734863z"></path></g><g opacity="1" transform="matrix(1,0,0,1,553.385009765625,72.89800262451172)"><path fill="rgb(78,78,78)" fill-opacity="1" d=" M0,4.800000190734863 C2.6440000534057617,4.800000190734863 4.800000190734863,2.6429998874664307 4.800000190734863,0 C4.800000190734863,-2.6440000534057617 2.6440000534057617,-4.800000190734863 0,-4.800000190734863 C-2.6440000534057617,-4.800000190734863 -4.800000190734863,-2.6440000534057617 -4.800000190734863,0 C-4.800000190734863,2.6429998874664307 -2.6440000534057617,4.800000190734863 0,4.800000190734863z"></path></g><g opacity="1" transform="matrix(1,0,0,1,598.5349731445312,58.347999572753906)"><path fill="rgb(78,78,78)" fill-opacity="1" d=" M0,4.800000190734863 C2.6440000534057617,4.800000190734863 4.800000190734863,2.6440000534057617 4.800000190734863,0 C4.800000190734863,-2.6440000534057617 2.6440000534057617,-4.800000190734863 0,-4.800000190734863 C-2.6440000534057617,-4.800000190734863 -4.800000190734863,-2.6440000534057617 -4.800000190734863,0 C-4.800000190734863,2.6440000534057617 -2.6440000534057617,4.800000190734863 0,4.800000190734863z"></path></g><g opacity="1" transform="matrix(1,0,0,1,597.375,59.625)"><path fill="rgb(166,166,166)" fill-opacity="1" d=" M0,-2.5 C1.3797500133514404,-2.5 2.5,-1.3797500133514404 2.5,0 C2.5,1.3797500133514404 1.3797500133514404,2.5 0,2.5 C-1.3797500133514404,2.5 -2.5,1.3797500133514404 -2.5,0 C-2.5,-1.3797500133514404 -1.3797500133514404,-2.5 0,-2.5z"></path></g><g opacity="1" transform="matrix(1,0,0,1,552.81298828125,74.375)"><path fill="rgb(166,166,166)" fill-opacity="1" d=" M0,-2.5 C1.3797500133514404,-2.5 2.5,-1.3797500133514404 2.5,0 C2.5,1.3797500133514404 1.3797500133514404,2.5 0,2.5 C-1.3797500133514404,2.5 -2.5,1.3797500133514404 -2.5,0 C-2.5,-1.3797500133514404 -1.3797500133514404,-2.5 0,-2.5z"></path></g><g opacity="1" transform="matrix(1,0,0,1,513.25,96.81300354003906)"><path fill="rgb(166,166,166)" fill-opacity="1" d=" M0,-2.5 C1.3797500133514404,-2.5 2.5,-1.3797500133514404 2.5,0 C2.5,1.3797500133514404 1.3797500133514404,2.5 0,2.5 C-1.3797500133514404,2.5 -2.5,1.3797500133514404 -2.5,0 C-2.5,-1.3797500133514404 -1.3797500133514404,-2.5 0,-2.5z"></path></g><g opacity="1" transform="matrix(1,0,0,1,513.25,142.93800354003906)"><path fill="rgb(166,166,166)" fill-opacity="1" d=" M0,-2.5 C1.3797500133514404,-2.5 2.5,-1.3797500133514404 2.5,0 C2.5,1.3797500133514404 1.3797500133514404,2.5 0,2.5 C-1.3797500133514404,2.5 -2.5,1.3797500133514404 -2.5,0 C-2.5,-1.3797500133514404 -1.3797500133514404,-2.5 0,-2.5z"></path></g><g opacity="1" transform="matrix(1,0,0,1,513.25,192.93800354003906)"><path fill="rgb(166,166,166)" fill-opacity="1" d=" M0,-2.5 C1.3797500133514404,-2.5 2.5,-1.3797500133514404 2.5,0 C2.5,1.3797500133514404 1.3797500133514404,2.5 0,2.5 C-1.3797500133514404,2.5 -2.5,1.3797500133514404 -2.5,0 C-2.5,-1.3797500133514404 -1.3797500133514404,-2.5 0,-2.5z"></path></g><g opacity="1" transform="matrix(1,0,0,1,514.75,238.68800354003906)"><path fill="rgb(166,166,166)" fill-opacity="1" d=" M0,-2.5 C1.3797500133514404,-2.5 2.5,-1.3797500133514404 2.5,0 C2.5,1.3797500133514404 1.3797500133514404,2.5 0,2.5 C-1.3797500133514404,2.5 -2.5,1.3797500133514404 -2.5,0 C-2.5,-1.3797500133514404 -1.3797500133514404,-2.5 0,-2.5z"></path></g><g opacity="1" transform="matrix(1,0,0,1,526.125,291.75)"><path fill="rgb(166,166,166)" fill-opacity="1" d=" M0,-2.5 C1.3797500133514404,-2.5 2.5,-1.3797500133514404 2.5,0 C2.5,1.3797500133514404 1.3797500133514404,2.5 0,2.5 C-1.3797500133514404,2.5 -2.5,1.3797500133514404 -2.5,0 C-2.5,-1.3797500133514404 -1.3797500133514404,-2.5 0,-2.5z"></path></g><g opacity="1" transform="matrix(1,0,0,1,546,336.06298828125)"><path fill="rgb(166,166,166)" fill-opacity="1" d=" M0,-2.5 C1.3797500133514404,-2.5 2.5,-1.3797500133514404 2.5,0 C2.5,1.3797500133514404 1.3797500133514404,2.5 0,2.5 C-1.3797500133514404,2.5 -2.5,1.3797500133514404 -2.5,0 C-2.5,-1.3797500133514404 -1.3797500133514404,-2.5 0,-2.5z"></path></g><g opacity="1" transform="matrix(1,0,0,1,568.75,375)"><path fill="rgb(166,166,166)" fill-opacity="1" d=" M0,-3.200000047683716 C1.048609972000122,-3.200000047683716 1.899999976158142,-1.7660800218582153 1.899999976158142,0 C1.899999976158142,1.7660800218582153 1.048609972000122,3.200000047683716 0,3.200000047683716 C-1.048609972000122,3.200000047683716 -1.899999976158142,1.7660800218582153 -1.899999976158142,0 C-1.899999976158142,-1.7660800218582153 -1.048609972000122,-3.200000047683716 0,-3.200000047683716z"></path></g><g opacity="1" transform="matrix(1,0,0,1,593.18798828125,408.375)"><path fill="rgb(166,166,166)" fill-opacity="1" d=" M0,-3.200000047683716 C1.048609972000122,-3.200000047683716 1.899999976158142,-1.7660800218582153 1.899999976158142,0 C1.899999976158142,1.7660800218582153 1.048609972000122,3.200000047683716 0,3.200000047683716 C-1.048609972000122,3.200000047683716 -1.899999976158142,1.7660800218582153 -1.899999976158142,0 C-1.899999976158142,-1.7660800218582153 -1.048609972000122,-3.200000047683716 0,-3.200000047683716z"></path></g><g opacity="1" transform="matrix(1,0,0,1,618.43798828125,441.625)"><path fill="rgb(166,166,166)" fill-opacity="1" d=" M0,-3.200000047683716 C1.048609972000122,-3.200000047683716 1.899999976158142,-1.7660800218582153 1.899999976158142,0 C1.899999976158142,1.7660800218582153 1.048609972000122,3.200000047683716 0,3.200000047683716 C-1.048609972000122,3.200000047683716 -1.899999976158142,1.7660800218582153 -1.899999976158142,0 C-1.899999976158142,-1.7660800218582153 -1.048609972000122,-3.200000047683716 0,-3.200000047683716z"></path></g><g opacity="1" transform="matrix(1,0,0,1,645.31298828125,466.75)"><path fill="rgb(166,166,166)" fill-opacity="1" d=" M0,-3.200000047683716 C1.048609972000122,-3.200000047683716 1.899999976158142,-1.7660800218582153 1.899999976158142,0 C1.899999976158142,1.7660800218582153 1.048609972000122,3.200000047683716 0,3.200000047683716 C-1.048609972000122,3.200000047683716 -1.899999976158142,1.7660800218582153 -1.899999976158142,0 C-1.899999976158142,-1.7660800218582153 -1.048609972000122,-3.200000047683716 0,-3.200000047683716z"></path></g><g opacity="1" transform="matrix(1,0,0,1,650.43798828125,466.75)"><path fill="rgb(166,166,166)" fill-opacity="1" d=" M0,-1.9500000476837158 C0.639100193977356,-1.9500000476837158 1.1579999923706055,-1.0762050151824951 1.1579999923706055,0 C1.1579999923706055,1.0762050151824951 0.639100193977356,1.9500000476837158 0,1.9500000476837158 C-0.639100193977356,1.9500000476837158 -1.1579999923706055,1.0762050151824951 -1.1579999923706055,0 C-1.1579999923706055,-1.0762050151824951 -0.639100193977356,-1.9500000476837158 0,-1.9500000476837158z"></path></g><g opacity="1" transform="matrix(1,0,0,1,676.56298828125,441.625)"><path fill="rgb(166,166,166)" fill-opacity="1" d=" M0,-3.200000047683716 C1.048609972000122,-3.200000047683716 1.899999976158142,-1.7660800218582153 1.899999976158142,0 C1.899999976158142,1.7660800218582153 1.048609972000122,3.200000047683716 0,3.200000047683716 C-1.048609972000122,3.200000047683716 -1.899999976158142,1.7660800218582153 -1.899999976158142,0 C-1.899999976158142,-1.7660800218582153 -1.048609972000122,-3.200000047683716 0,-3.200000047683716z"></path></g><g opacity="1" transform="matrix(1,0,0,1,702.18798828125,408.375)"><path fill="rgb(166,166,166)" fill-opacity="1" d=" M0,-3.200000047683716 C1.048609972000122,-3.200000047683716 1.899999976158142,-1.7660800218582153 1.899999976158142,0 C1.899999976158142,1.7660800218582153 1.048609972000122,3.200000047683716 0,3.200000047683716 C-1.048609972000122,3.200000047683716 -1.899999976158142,1.7660800218582153 -1.899999976158142,0 C-1.899999976158142,-1.7660800218582153 -1.048609972000122,-3.200000047683716 0,-3.200000047683716z"></path></g><g opacity="1" transform="matrix(1,0,0,1,726.56298828125,375)"><path fill="rgb(166,166,166)" fill-opacity="1" d=" M0,-3.200000047683716 C1.048609972000122,-3.200000047683716 1.899999976158142,-1.7660800218582153 1.899999976158142,0 C1.899999976158142,1.7660800218582153 1.048609972000122,3.200000047683716 0,3.200000047683716 C-1.048609972000122,3.200000047683716 -1.899999976158142,1.7660800218582153 -1.899999976158142,0 C-1.899999976158142,-1.7660800218582153 -1.048609972000122,-3.200000047683716 0,-3.200000047683716z"></path></g><g opacity="1" transform="matrix(1,0,0,1,750.625,335)"><path fill="rgb(166,166,166)" fill-opacity="1" d=" M0,-2.5 C1.3797500133514404,-2.5 2.5,-1.3797500133514404 2.5,0 C2.5,1.3797500133514404 1.3797500133514404,2.5 0,2.5 C-1.3797500133514404,2.5 -2.5,1.3797500133514404 -2.5,0 C-2.5,-1.3797500133514404 -1.3797500133514404,-2.5 0,-2.5z"></path></g><g opacity="1" transform="matrix(1,0,0,1,769.625,290.5)"><path fill="rgb(166,166,166)" fill-opacity="1" d=" M0,-2.5 C1.3797500133514404,-2.5 2.5,-1.3797500133514404 2.5,0 C2.5,1.3797500133514404 1.3797500133514404,2.5 0,2.5 C-1.3797500133514404,2.5 -2.5,1.3797500133514404 -2.5,0 C-2.5,-1.3797500133514404 -1.3797500133514404,-2.5 0,-2.5z"></path></g><g opacity="1" transform="matrix(1,0,0,1,782.125,236.75)"><path fill="rgb(166,166,166)" fill-opacity="1" d=" M0,-2.5 C1.3797500133514404,-2.5 2.5,-1.3797500133514404 2.5,0 C2.5,1.3797500133514404 1.3797500133514404,2.5 0,2.5 C-1.3797500133514404,2.5 -2.5,1.3797500133514404 -2.5,0 C-2.5,-1.3797500133514404 -1.3797500133514404,-2.5 0,-2.5z"></path></g><g opacity="1" transform="matrix(1,0,0,1,783.375,190.5)"><path fill="rgb(166,166,166)" fill-opacity="1" d=" M0,-2.5 C1.3797500133514404,-2.5 2.5,-1.3797500133514404 2.5,0 C2.5,1.3797500133514404 1.3797500133514404,2.5 0,2.5 C-1.3797500133514404,2.5 -2.5,1.3797500133514404 -2.5,0 C-2.5,-1.3797500133514404 -1.3797500133514404,-2.5 0,-2.5z"></path></g><g opacity="1" transform="matrix(1,0,0,1,783.625,140.375)"><path fill="rgb(166,166,166)" fill-opacity="1" d=" M0,-2.5 C1.3797500133514404,-2.5 2.5,-1.3797500133514404 2.5,0 C2.5,1.3797500133514404 1.3797500133514404,2.5 0,2.5 C-1.3797500133514404,2.5 -2.5,1.3797500133514404 -2.5,0 C-2.5,-1.3797500133514404 -1.3797500133514404,-2.5 0,-2.5z"></path></g><g opacity="1" transform="matrix(1,0,0,1,782.5,94.31300354003906)"><path fill="rgb(166,166,166)" fill-opacity="1" d=" M0,-3 C1.6556999683380127,-3 3,-1.6556999683380127 3,0 C3,1.6556999683380127 1.6556999683380127,3 0,3 C-1.6556999683380127,3 -3,1.6556999683380127 -3,0 C-3,-1.6556999683380127 -1.6556999683380127,-3 0,-3z"></path></g><g opacity="1" transform="matrix(1,0,0,1,744.375,72.625)"><path fill="rgb(166,166,166)" fill-opacity="1" d=" M0,-3 C1.3797500133514404,-3 2.5,-1.6556999683380127 2.5,0 C2.5,1.6556999683380127 1.3797500133514404,3 0,3 C-1.3797500133514404,3 -2.5,1.6556999683380127 -2.5,0 C-2.5,-1.6556999683380127 -1.3797500133514404,-3 0,-3z"></path></g><g opacity="1" transform="matrix(1,0,0,1,699,57.875)"><path fill="rgb(166,166,166)" fill-opacity="1" d=" M0,-3 C1.3797500133514404,-3 2.5,-1.6556999683380127 2.5,0 C2.5,1.6556999683380127 1.3797500133514404,3 0,3 C-1.3797500133514404,3 -2.5,1.6556999683380127 -2.5,0 C-2.5,-1.6556999683380127 -1.3797500133514404,-3 0,-3z"></path></g><g opacity="1" transform="matrix(1,0,0,1,650.125,52.625)"><path fill="rgb(166,166,166)" fill-opacity="1" d=" M0,-3.200000047683716 C1.048609972000122,-3.200000047683716 1.899999976158142,-1.7660800218582153 1.899999976158142,0 C1.899999976158142,1.7660800218582153 1.048609972000122,3.200000047683716 0,3.200000047683716 C-1.048609972000122,3.200000047683716 -1.899999976158142,1.7660800218582153 -1.899999976158142,0 C-1.899999976158142,-1.7660800218582153 -1.048609972000122,-3.200000047683716 0,-3.200000047683716z"></path></g><g opacity="1" transform="matrix(1,0,0,1,644.68798828125,52.9379997253418)"><path fill="rgb(166,166,166)" fill-opacity="1" d=" M0,-1.9500000476837158 C0.6346849799156189,-1.9500000476837158 1.149999976158142,-1.0762050151824951 1.149999976158142,0 C1.149999976158142,1.0762050151824951 0.6346849799156189,1.9500000476837158 0,1.9500000476837158 C-0.6346849799156189,1.9500000476837158 -1.149999976158142,1.0762050151824951 -1.149999976158142,0 C-1.149999976158142,-1.0762050151824951 -0.6346849799156189,-1.9500000476837158 0,-1.9500000476837158z"></path></g></g></g></svg>
